<?xml version="1.0" encoding="UTF-8" standalone="no"?>
<!-- Created with Inkscape (http://www.inkscape.org/) -->

<svg
   width="150"
   height="94.646339"
   viewBox="0 0 39.687499 25.041845"
   version="1.1"
   id="svg10458"
   inkscape:version="1.2.2 (b0a8486541, 2022-12-01)"
   sodipodi:docname="logo.svg"
   inkscape:export-filename="logo.png"
   inkscape:export-xdpi="96"
   inkscape:export-ydpi="96"
   xmlns:inkscape="http://www.inkscape.org/namespaces/inkscape"
   xmlns:sodipodi="http://sodipodi.sourceforge.net/DTD/sodipodi-0.dtd"
   xmlns="http://www.w3.org/2000/svg"
   xmlns:svg="http://www.w3.org/2000/svg">
  <sodipodi:namedview
     id="namedview10460"
     pagecolor="#ffffff"
     bordercolor="#000000"
     borderopacity="0.25"
     inkscape:showpageshadow="2"
     inkscape:pageopacity="0.0"
     inkscape:pagecheckerboard="0"
     inkscape:deskcolor="#d1d1d1"
     inkscape:document-units="mm"
     showgrid="false"
     inkscape:zoom="0.73752084"
     inkscape:cx="-8.8133102"
     inkscape:cy="59.659331"
     inkscape:window-width="1410"
     inkscape:window-height="903"
     inkscape:window-x="0"
     inkscape:window-y="0"
     inkscape:window-maximized="1"
     inkscape:current-layer="layer1" />
  <defs
     id="defs10455" />
  <g
     inkscape:label="Layer 1"
     inkscape:groupmode="layer"
     id="layer1"
     transform="translate(-19.484586,55.074337)">
    <g
       id="g16998"
       transform="matrix(1.020811,0,0,1.020811,-0.40549336,1.146151)">
      <path
         id="path1413-8-1-7-0-6"
         style="fill:#ffffff;fill-opacity:1;stroke:#000000;stroke-width:3.52174;stroke-dasharray:none;stop-color:#000000"
         d="m 56.419105,-42.805731 c -0.480243,1.028587 -1.067812,2.006024 -1.750005,2.920795 -0.682199,0.914771 -1.459002,1.766883 -2.317709,2.544788 -0.8587,0.777921 -1.799309,1.481642 -2.809069,2.099647 -1.009785,0.618013 -2.088744,1.15031 -3.224147,1.585366 -1.135402,0.435055 -2.327264,0.772862 -3.562861,1.001919 -1.23559,0.229049 -2.514925,0.349332 -3.825255,0.349332 -1.310343,0 -2.589679,-0.120283 -3.825263,-0.349325 -1.23559,-0.229064 -2.427452,-0.566871 -3.56286,-1.001934 -1.135409,-0.435048 -2.214363,-0.967345 -3.224129,-1.585358 -1.009784,-0.618005 -1.950381,-1.321726 -2.809093,-2.099647 -0.858701,-0.777905 -1.635505,-1.630017 -2.317703,-2.544788 -0.682187,-0.914755 -1.269768,-1.892208 -1.750005,-2.920795 0.548189,-1.091452 1.16533,-2.136431 1.750005,-2.926676 0.682198,-0.914786 1.459002,-1.76689 2.317703,-2.544803 0.858712,-0.777905 1.799309,-1.481642 2.809093,-2.09964 1.009766,-0.618005 2.08872,-1.150309 3.224129,-1.585357 1.135408,-0.435056 2.32727,-0.772878 3.56286,-1.001927 1.235584,-0.229041 2.51492,-0.349332 3.825263,-0.349332 1.31033,0 2.589665,0.120291 3.825255,0.349332 1.235597,0.229056 2.427459,0.566871 3.562867,1.001927 1.135397,0.435055 2.214356,0.967352 3.224141,1.585357 1.009766,0.618013 1.950369,1.321735 2.809069,2.09964 0.858707,0.77792 1.63551,1.630025 2.317709,2.544803 0.662732,0.955211 1.304591,1.97564 1.750005,2.926676 z"
         sodipodi:nodetypes="csssssssssssccssssssssscc" />
      <circle
         style="fill:#ff6600;fill-opacity:1;stroke:#000000;stroke-width:1.80866;stroke-linecap:round;stroke-dasharray:none;stroke-opacity:1;stop-color:#000000"
         id="path7591-8-6-4"
         cx="38.921703"
         cy="-42.80867"
         r="9.4249897" />
      <circle
         style="fill:#ffffff;fill-opacity:1;stroke:#000000;stroke-width:1.20578;stroke-linecap:round;stroke-dasharray:none;stroke-opacity:1;stop-color:#000000"
         id="path7478-4-9-5"
         cx="38.921703"
         cy="-42.80867"
         r="5.084764" />
      <path
         d="m 39.86293,-40.48856 c 0,0.280823 -0.111575,0.550098 -0.310027,0.748663 -0.198576,0.19858 -0.467856,0.310035 -0.748678,0.310035 -0.280746,0 -0.549995,-0.111485 -0.748563,-0.310035 -0.198567,-0.198557 -0.310027,-0.46784 -0.310027,-0.748663 0,-0.280746 0.111468,-0.549999 0.310027,-0.748564 0.19856,-0.19858 0.467855,-0.310034 0.748563,-0.310034 0.280822,0 0.550102,0.111462 0.748678,0.310034 0.19846,0.198558 0.310027,0.467848 0.310027,0.748564 z"
         id="path6609-7-8-3-2-6"
         style="stroke-width:0.026896" />
      <path
         d="m 38.804298,-47.401698 c -1.272626,0 -2.304265,1.031717 -2.304265,2.30426 0,1.27255 1.031724,2.304275 2.304265,2.304275 1.272553,0 2.30427,1.031718 2.30427,2.304268 0,1.27255 -1.031717,2.304268 -2.30427,2.304268 2.545359,0 4.608758,-2.063374 4.608758,-4.608749 0,-2.545352 -2.063381,-4.608756 -4.608758,-4.608756 z m -1.2e-5,1.253956 c 0.278664,0 0.545882,0.110617 0.74293,0.307651 0.196937,0.196942 0.307653,0.464153 0.307751,0.742714 0,0.278659 -0.110717,0.545985 -0.307751,0.743018 -0.196935,0.196943 -0.464266,0.307643 -0.74293,0.307643 -0.278581,0 -0.545867,-0.110609 -0.742922,-0.307643 -0.197042,-0.197026 -0.307646,-0.464336 -0.307646,-0.743018 0,-0.278576 0.110717,-0.545772 0.307758,-0.742714 0.197034,-0.197034 0.46426,-0.307651 0.74281,-0.307651 z"
         id="path6613-6-8-8-9"
         style="stroke-width:0.0213536"
         sodipodi:nodetypes="cssscsccsccsssscs" />
    </g>
  </g>
</svg>
